HIERARCHY
ROOT Hips
{
	OFFSET 0.00 0.00 0.00
	CHANNELS 6 Xposition Yposition Zposition Zrotation Xrotation Yrotation
	JOINT Spine
	{
		OFFSET 0 13.7848 0.0644
		CHANNELS 3 Zrotation Xrotation Yrotation
		JOINT Spine1
		{
			OFFSET 0 12.0447 -0
			CHANNELS 3 Zrotation Xrotation Yrotation
			JOINT Spine2
			{
				OFFSET -0 17.8005 -0
				CHANNELS 3 Zrotation Xrotation Yrotation
				JOINT Neck
				{
					OFFSET 0 40.9166 -0
					CHANNELS 3 Zrotation Xrotation Yrotation
					JOINT Head
					{
						OFFSET -0 21.2887 0
						CHANNELS 3 Zrotation Xrotation Yrotation
						JOINT HeadTop_End
						{
							OFFSET 0 17.4474 0
							CHANNELS 3 Zrotation Xrotation Yrotation
						}
					}
				}
				JOINT LeftShoulder
				{
					OFFSET 17.3995 23.8766 -6.0721
					CHANNELS 3 Zrotation Xrotation Yrotation
					JOINT LeftArm
					{
						OFFSET -0 19.9201 -0
						CHANNELS 3 Zrotation Xrotation Yrotation
						JOINT LeftForeArm
						{
							OFFSET -0 49.2901 -0
							CHANNELS 3 Zrotation Xrotation Yrotation
							JOINT LeftHand
							{
								OFFSET 0 31.562 0
								CHANNELS 3 Zrotation Xrotation Yrotation
								JOINT LeftHandThumb1
								{
									OFFSET -7.9466 6.134 2.4863
									CHANNELS 3 Zrotation Xrotation Yrotation
									JOINT LeftHandThumb2
									{
										OFFSET -0.0255 -7.7944 -0.0327
										CHANNELS 3 Zrotation Xrotation Yrotation
										JOINT LeftHandThumb3
										{
											OFFSET -0.0205 -8.3869 0.0307
											CHANNELS 3 Zrotation Xrotation Yrotation
											JOINT LeftHandThumb4
											{
												OFFSET 0.0565 -7.2511 -0.013
												CHANNELS 3 Zrotation Xrotation Yrotation
											}
										}
									}
								}
								JOINT LeftHandPinky1
								{
									OFFSET 10.9531 18.9207 3.2871
									CHANNELS 3 Zrotation Xrotation Yrotation
									JOINT LeftHandPinky2
									{
										OFFSET -0.0034 -4.9187 0.0963
										CHANNELS 3 Zrotation Xrotation Yrotation
										JOINT LeftHandPinky3
										{
											OFFSET 0.0758 -5.2323 0.0358
											CHANNELS 3 Zrotation Xrotation Yrotation
											JOINT LeftHandPinky4
											{
												OFFSET -0.1312 -5.5702 0.001
												CHANNELS 3 Zrotation Xrotation Yrotation
											}
										}
									}
								}
								JOINT LeftHandRing1
								{
									OFFSET 6.2716 22.7261 1.7123
									CHANNELS 3 Zrotation Xrotation Yrotation
									JOINT LeftHandRing2
									{
										OFFSET -0.0452 -6.4083 0.0434
										CHANNELS 3 Zrotation Xrotation Yrotation
										JOINT LeftHandRing3
										{
											OFFSET -0.1152 -6.1487 -0.0756
											CHANNELS 3 Zrotation Xrotation Yrotation
											JOINT LeftHandRing4
											{
												OFFSET -0.2306 -6.141 -0.0323
												CHANNELS 3 Zrotation Xrotation Yrotation
											}
										}
									}
								}
								JOINT LeftHandMiddle1
								{
									OFFSET -0 23.374 -0
									CHANNELS 3 Zrotation Xrotation Yrotation
									JOINT LeftHandMiddle2
									{
										OFFSET -0.1878 -6.9921 -0.168
										CHANNELS 3 Zrotation Xrotation Yrotation
										JOINT LeftHandMiddle3
										{
											OFFSET -0.0477 -7.0158 0.0144
											CHANNELS 3 Zrotation Xrotation Yrotation
											JOINT LeftHandMiddle4
											{
												OFFSET -0.0402 -7.7215 -0.0133
												CHANNELS 3 Zrotation Xrotation Yrotation
											}
										}
									}
								}
								JOINT LeftHandIndex1
								{
									OFFSET -6.1355 21.3106 -1.073
									CHANNELS 3 Zrotation Xrotation Yrotation
									JOINT LeftHandIndex2
									{
										OFFSET 0.0766 -7.536 -0.0238
										CHANNELS 3 Zrotation Xrotation Yrotation
										JOINT LeftHandIndex3
										{
											OFFSET -0.0927 -7.5116 0.0451
											CHANNELS 3 Zrotation Xrotation Yrotation
											JOINT LeftHandIndex4
											{
												OFFSET -0.0002 -10.2123 -0.0339
												CHANNELS 3 Zrotation Xrotation Yrotation
											}
										}
									}
								}
							}
						}
					}
				}
				JOINT RightShoulder
				{
					OFFSET -17.3995 23.8766 -6.0721
					CHANNELS 3 Zrotation Xrotation Yrotation
					JOINT RightArm
					{
						OFFSET 0 19.9201 0
						CHANNELS 3 Zrotation Xrotation Yrotation
						JOINT RightForeArm
						{
							OFFSET 0 49.2901 0
							CHANNELS 3 Zrotation Xrotation Yrotation
							JOINT RightHand
							{
								OFFSET -0 31.562 0
								CHANNELS 3 Zrotation Xrotation Yrotation
								JOINT RightHandThumb1
								{
									OFFSET 7.9466 6.134 2.4863
									CHANNELS 3 Zrotation Xrotation Yrotation
									JOINT RightHandThumb2
									{
										OFFSET 0.0255 -7.7944 -0.0327
										CHANNELS 3 Zrotation Xrotation Yrotation
										JOINT RightHandThumb3
										{
											OFFSET 0.0205 -8.3869 0.0307
											CHANNELS 3 Zrotation Xrotation Yrotation
											JOINT RightHandThumb4
											{
												OFFSET -0.0565 -7.2511 -0.013
												CHANNELS 3 Zrotation Xrotation Yrotation
											}
										}
									}
								}
								JOINT RightHandIndex1
								{
									OFFSET 6.1355 21.3106 -1.073
									CHANNELS 3 Zrotation Xrotation Yrotation
									JOINT RightHandIndex2
									{
										OFFSET -0.0766 -7.536 -0.0238
										CHANNELS 3 Zrotation Xrotation Yrotation
										JOINT RightHandIndex3
										{
											OFFSET 0.0927 -7.5116 0.0451
											CHANNELS 3 Zrotation Xrotation Yrotation
											JOINT RightHandIndex4
											{
												OFFSET 0.0002 -10.2123 -0.0339
												CHANNELS 3 Zrotation Xrotation Yrotation
											}
										}
									}
								}
								JOINT RightHandMiddle1
								{
									OFFSET 0 23.374 -0
									CHANNELS 3 Zrotation Xrotation Yrotation
									JOINT RightHandMiddle2
									{
										OFFSET 0.1878 -6.9921 -0.168
										CHANNELS 3 Zrotation Xrotation Yrotation
										JOINT RightHandMiddle3
										{
											OFFSET 0.0477 -7.0158 0.0144
											CHANNELS 3 Zrotation Xrotation Yrotation
											JOINT RightHandMiddle4
											{
												OFFSET 0.0402 -7.7215 -0.0133
												CHANNELS 3 Zrotation Xrotation Yrotation
											}
										}
									}
								}
								JOINT RightHandRing1
								{
									OFFSET -6.2716 22.7261 1.7123
									CHANNELS 3 Zrotation Xrotation Yrotation
									JOINT RightHandRing2
									{
										OFFSET 0.0452 -6.4083 0.0434
										CHANNELS 3 Zrotation Xrotation Yrotation
										JOINT RightHandRing3
										{
											OFFSET 0.1152 -6.1487 -0.0756
											CHANNELS 3 Zrotation Xrotation Yrotation
											JOINT RightHandRing4
											{
												OFFSET 0.2306 -6.141 -0.0323
												CHANNELS 3 Zrotation Xrotation Yrotation
											}
										}
									}
								}
								JOINT RightHandPinky1
								{
									OFFSET -10.9531 18.9207 3.2871
									CHANNELS 3 Zrotation Xrotation Yrotation
									JOINT RightHandPinky2
									{
										OFFSET 0.0034 -4.9187 0.0963
										CHANNELS 3 Zrotation Xrotation Yrotation
										JOINT RightHandPinky3
										{
											OFFSET -0.0758 -5.2323 0.0358
											CHANNELS 3 Zrotation Xrotation Yrotation
											JOINT RightHandPinky4
											{
												OFFSET 0.1312 -5.5702 0.001
												CHANNELS 3 Zrotation Xrotation Yrotation
											}
										}
									}
								}
							}
						}
					}
				}
			}
		}
	}
	JOINT LeftUpLeg
	{
		OFFSET 19.8991 -7.8851 -3.4295
		CHANNELS 3 Zrotation Xrotation Yrotation
		JOINT LeftLeg
		{
			OFFSET -0 38.4457 -0
			CHANNELS 3 Zrotation Xrotation Yrotation
			JOINT LeftFoot
			{
				OFFSET -0.1321 32.8117 -0.1889
				CHANNELS 3 Zrotation Xrotation Yrotation
				JOINT LeftToeBase
				{
					OFFSET 0 24.02 0
					CHANNELS 3 Zrotation Xrotation Yrotation
					JOINT LeftToe_End
					{
						OFFSET -0 16.6166 -0
						CHANNELS 3 Zrotation Xrotation Yrotation
					}
				}
			}
		}
	}
	JOINT RightUpLeg
	{
		OFFSET -19.8991 -7.8851 -3.4295
		CHANNELS 3 Zrotation Xrotation Yrotation
		JOINT RightLeg
		{
			OFFSET 0 38.4457 -0
			CHANNELS 3 Zrotation Xrotation Yrotation
			JOINT RightFoot
			{
				OFFSET 0.1321 32.8117 -0.1889
				CHANNELS 3 Zrotation Xrotation Yrotation
				JOINT RightToeBase
				{
					OFFSET -0 24.02 0
					CHANNELS 3 Zrotation Xrotation Yrotation
					JOINT RightToe_End
					{
						OFFSET 0 16.6166 -0
						CHANNELS 3 Zrotation Xrotation Yrotation
					}
				}
			}
		}
	}
}
MOTION
Frames: 6
Frame Time: 0.0333333
-3.5189	68.0038	6.4525	-10.7729	20.7482	25.9223	-1.91948	12.1113	1.21178	-1.64668	13.4927	-0.501543	-1.3927	29.7321	-0.586745	-19.3177	37.6017	-1.98659	-8.11679	-33.4377	-15.6157	-0	-55.7115	-0	-87.0369	2.56411	12.4922	-54.5577	0.993867	30.2509	74.3428	53.4704	1.14715	-0.679335	31.4723	32.8442	-143.189	-2.67656	-131.279	9.50468	8.25641	-10.0831	53.3276	-2.20911	27.1347	-8.6489	-1.81523	-33.3438	138.635	-34.8727	-179.146	13.2028	51.4294	-22.1558	44.7479	63.9401	-55.3545	-0.569979	-8.19974	-4.84949	158.086	-1.04536	-172.573	1.99203	74.6574	-2.59541	5.4669	45.8733	-12.4744	-0	-6.0471	-0	-173.8	-21.1363	-174.173	-61.7434	74.4624	65.1559	-5.67564	32.5983	4.16324	0.291655	-5.22659	-2.24865	-141.383	-29.6306	-163.284	-13.5059	26.5634	16.3148	-45.0857	44.5014	48.678	-2.39024	-0.645758	5.07582	54.6384	36.85	-3.14212	51.7971	46.6557	-45.4529	-102.172	42.2633	14.2545	-27.4832	20.3392	-5.63144	118.64	14.8755	146.956	-35.0022	-19.1511	-5.55884	0.754176	14.8307	3.6246	8.6489	-1.81523	33.3438	162.017	-14.5217	-179.233	43.145	43.9205	-46.8442	12.3635	23.2909	-15.9763	2.39024	-0.645758	-5.07582	177.343	-15.2655	172.483	109.634	71.8693	-112.394	14.0626	53.8691	-11.9661	-0.291655	-5.22659	2.24865	-174.963	-37.8504	173.77	-0.658973	63.8695	-1.08834	-1.24278	11.0689	2.73033	-0	-6.0471	-0	-145.108	-68.9921	-163.592	-79.0999	70.4219	94.8332	-20.8612	54.0473	29.1608	0.569979	-8.19974	4.84949	-46.1142	73.9534	-131.282	84.5925	-80.1296	72.8747	-40.5454	40.1341	44.9352	-2.86382	57.2492	3.58271	-0.214127	1.01299	0.205132	142.929	28.6188	47.683	-170.832	-71.1527	-150.669	110.082	67.7555	-80.4598	-2.37772	64.8914	9.90461	0.214127	1.01299	-0.205132
-3.972	68.7503	5.5362	-9.38981	19.569	21.6762	-1.81743	10.6847	0.679176	-1.43163	12.5036	-0.823841	-1.11858	28.736	-0.851128	-17.3705	38.1412	-1.60467	-7.96737	-33.8918	-14.1573	-0	-55.7115	-0	-87.5931	1.2556	12.1996	-52.9907	9.18355	27.7395	71.5779	51.8418	2.91401	-1.39698	32.1255	32.7287	-143.189	-2.67657	-131.279	9.50468	8.25641	-10.0831	53.3277	-2.2092	27.1347	-8.6489	-1.81523	-33.3438	138.259	-34.1533	-178.972	12.6651	50.7524	-21.4584	43.2169	63.5932	-53.7128	-0.569979	-8.19974	-4.84949	157.868	-0.269899	-172.542	1.9037	73.8634	-2.37174	5.26274	45.0964	-12.1671	-0	-6.0471	-0	-173.792	-20.3174	-174.361	-58.9433	74.1889	62.4025	-5.4964	31.8085	4.00849	0.291655	-5.22659	-2.24865	-141.446	-28.8447	-163.855	-12.9829	25.9864	15.7714	-44.1059	44.233	47.6968	-2.39024	-0.645758	5.07582	57.5216	35.3804	-5.50469	52.7571	46.0607	-45.0628	-103.155	42.2559	14.8564	-26.8783	20.4158	-6.49145	118.64	14.8755	146.956	-35.0022	-19.1511	-5.55884	0.754176	14.8307	3.6246	8.6489	-1.81523	33.3438	162.339	-13.7108	-178.727	41.9747	43.6112	-45.6471	12.0661	22.929	-15.6745	2.39024	-0.645758	-5.07582	177.61	-14.3539	172.751	106.883	72.3576	-109.688	13.7676	53.4138	-11.6827	-0.291655	-5.22659	2.24865	-174.662	-36.9122	173.94	-0.754728	62.9024	-1.14559	-1.24244	10.5866	2.64424	-0	-6.0471	-0	-145.781	-68.1082	-164.529	-76.3594	70.5307	91.9192	-20.4011	53.6721	28.6292	0.569979	-8.19974	4.84949	-55.9238	74.505	-118.995	85.3144	-80.469	74.0008	-39.7687	41.6708	41.9215	-2.82121	57.9459	3.58304	-0.214127	1.01299	0.205132	143.307	30.2073	45.3403	-170.159	-71.9515	-150.86	109.812	67.6392	-80.518	-0.866513	64.0708	6.31069	0.214127	1.01299	-0.205132
-4.5373	69.6471	4.4207	-8.28923	17.9163	17.2833	-1.34541	9.24572	0.358558	-0.96736	11.4737	-1.0357	-0.62656	27.6992	-0.996284	-14.116	38.3983	-1.4437	-6.76595	-35.3252	-12.5445	-0	-55.7115	-0	-87.9255	0.764085	12.3222	-52.2697	17.3604	28.4295	73.7603	51.005	1.70996	-2.85009	32.2546	32.4515	-143.189	-2.67656	-131.279	9.50468	8.25641	-10.0831	53.3276	-2.20911	27.1347	-8.6489	-1.81523	-33.3438	137.831	-33.3361	-178.776	12.0792	49.9786	-20.69	41.5286	63.1762	-51.8984	-0.569979	-8.19974	-4.84949	157.619	0.610928	-172.503	1.82088	72.9614	-2.1348	5.04119	44.2129	-11.8278	-0	-6.0471	-0	-173.778	-19.3866	-174.571	-55.8841	73.8352	59.3962	-5.29785	30.9109	3.83797	0.291655	-5.22659	-2.24865	-141.504	-27.9477	-164.489	-12.3991	25.3256	15.1644	-43.0064	43.9137	46.5955	-2.39024	-0.645758	5.07582	60.6771	32.8377	-7.69647	55.5111	46.4003	-48.7485	-102.749	42.2824	14.6068	-23.7786	21.8791	-11.398	118.64	14.8755	146.956	-35.0022	-19.1511	-5.55884	0.754176	14.8307	3.6246	8.6489	-1.81523	33.3438	162.742	-12.6585	-178.082	40.502	43.1908	-44.1401	11.6903	22.4648	-15.2929	2.39024	-0.645758	-5.07582	177.947	-13.1734	173.09	103.153	72.9205	-106.017	13.4008	52.8309	-11.3305	-0.291655	-5.22659	2.24865	-174.283	-35.6981	174.147	-0.87561	61.6657	-1.22127	-1.24322	9.97043	2.5346	-0	-6.0471	-0	-146.561	-66.9598	-165.649	-72.8242	70.6015	88.1625	-19.8275	53.1891	27.9642	0.569979	-8.19974	4.84949	-68.3208	74.1681	-103.851	83.9656	-80.9004	73.1052	-39.363	42.8369	39.0145	-2.79731	58.3322	3.58288	-0.214127	1.01299	0.205132	144.091	30.4485	43.9024	-169.262	-73.9784	-151.155	109.036	67.0136	-80.5242	0.714753	63.494	1.86407	0.214127	1.01299	-0.205132
-4.9293	71.0314	3.3	-6.76075	16.1959	12.4253	-0.922808	8.17078	0.912564	-0.584722	10.6266	-0.557868	-0.426618	26.8299	-0.344484	-10.0851	38.3496	-1.32681	-5.87249	-37.0357	-11.3917	-0	-55.7115	-0	-87.4892	1.14526	12.7924	-52.3534	25.8405	31.7599	76.1387	50.1407	0.40053	-2.98015	30.0556	30.4239	-143.189	-2.67656	-131.279	9.50468	8.25641	-10.0831	53.3276	-2.20911	27.1347	-8.6489	-1.81523	-33.3438	137.356	-32.4345	-178.561	11.462	49.119	-19.8706	39.7284	62.689	-49.9588	-0.569979	-8.19974	-4.84949	157.344	1.58239	-172.455	1.74833	71.9661	-1.89191	4.80886	43.2371	-11.4646	-0	-6.0471	-0	-173.759	-18.359	-174.795	-52.6672	73.3957	56.2378	-5.08426	29.9199	3.65565	0.291655	-5.22659	-2.24865	-141.553	-26.9533	-165.171	-11.7678	24.5901	14.5071	-41.8104	43.544	45.3976	-2.39024	-0.645758	5.07582	64.3198	28.0969	-9.84293	59.7055	48.0628	-55.7803	-101.711	42.3116	13.9697	-20.0159	22.8815	-16.9039	118.64	14.8755	146.956	-35.0022	-19.1511	-5.55884	0.754176	14.8307	3.6246	8.6489	-1.81523	33.3438	163.177	-11.4772	-177.373	38.8906	42.6893	-42.4904	11.2768	21.9444	-14.8729	2.39024	-0.645758	-5.07582	178.314	-11.8517	173.459	98.7217	73.4595	-101.649	13.0043	52.1794	-10.9504	-0.291655	-5.22659	2.24865	-173.872	-34.3397	174.364	-1.00887	60.2863	-1.30842	-1.24541	9.28351	2.41252	-0	-6.0471	-0	-147.326	-65.67	-166.798	-68.87	70.5893	83.9613	-19.2066	52.6462	27.241	0.569979	-8.19974	4.84949	-84.7016	73.5062	-85.6502	78.672	-80.2838	68.4668	-38.7514	44.3562	34.348	-2.79211	58.4188	3.58366	-0.214127	1.01299	0.205132	144.898	29.6582	43.2189	-164.081	-77.422	-147.489	109.35	66.3329	-81.4288	2.51646	61.9073	-3.40356	0.214127	1.01299	-0.205132
-5.301	72.5595	2.1914	-5.23534	14.7464	7.13601	-0.593814	7.12984	1.74147	-0.298393	9.66727	0.140495	-0.389289	25.8262	0.528376	-6.24193	38.1161	-1.00287	-6.6173	-38.6452	-10.9189	-0	-55.7115	-0	-85.9859	1.86525	13.2981	-53.668	33.1835	36.5424	76.0697	48.8667	0.579654	-1.90048	25.5932	28.6901	-143.189	-2.67656	-131.279	9.50466	8.25631	-10.0831	53.3277	-2.2092	27.1347	-8.6489	-1.81523	-33.3438	136.842	-31.4621	-178.33	10.8285	48.1857	-19.0176	37.8609	62.1331	-47.9406	-0.569979	-8.19974	-4.84949	157.046	2.6303	-172.398	1.68884	70.8922	-1.648	4.57163	42.1832	-11.0851	-0	-6.0471	-0	-173.732	-17.2498	-175.031	-49.39	72.8678	53.0237	-4.86033	28.8503	3.46568	0.291655	-5.22659	-2.24865	-141.588	-25.8749	-165.887	-11.1011	23.7894	13.8122	-40.5405	43.1252	44.1258	-2.39024	-0.645758	5.07582	67.6	21.7299	-11.4872	63.6808	50.5023	-63.8515	-100.088	42.3491	12.9716	-16.6782	22.9302	-21.4926	118.64	14.8755	146.956	-35.0022	-19.1511	-5.55884	0.754176	14.8307	3.6246	8.6489	-1.81523	33.3438	163.62	-10.218	-176.633	37.2137	42.1193	-40.7725	10.843	21.388	-14.4323	2.39024	-0.645758	-5.07582	178.691	-10.4469	173.84	93.7189	73.9205	-96.7145	12.5965	51.4849	-10.5603	-0.291655	-5.22659	2.24865	-173.449	-32.8971	174.578	-1.14927	58.8196	-1.4041	-1.24931	8.55301	2.283	-0	-6.0471	-0	-148.034	-64.2951	-167.914	-64.6931	70.471	79.5218	-18.5668	52.0637	26.4922	0.569979	-8.19974	4.84949	-100.738	70.9684	-68.1759	73.4997	-79.6858	63.7178	-39.441	47.4665	30.7441	-2.83958	57.3697	3.47489	-0.214127	1.01299	0.205132	145.098	28.353	43.2776	-150.893	-81.7913	-137.818	110.076	65.5067	-82.9193	4.05613	59.7303	-9.59366	0.214127	1.01299	-0.205132
-6.0701	74.1315	1.0613	-3.90065	13.6602	1.86991	-0.500327	6.12136	1.48537	0.00828732	8.81809	0.0705337	-0.0803102	24.9645	0.483362	-3.59968	37.9085	-0.307481	-9.47121	-40.0688	-10.8049	-0	-55.7115	-0	-84.2877	2.16654	13.5815	-55.6168	37.6547	40.3127	74.5156	47.3391	1.64918	-1.46828	21.606	30.3099	-143.189	-2.67656	-131.279	9.50466	8.25631	-10.0831	53.3276	-2.20911	27.1347	-8.6489	-1.81523	-33.3438	136.295	-30.4321	-178.088	10.1921	47.1903	-18.1472	35.966	61.5121	-45.8856	-0.569979	-8.19974	-4.84949	156.729	3.73995	-172.332	1.64305	69.7545	-1.40631	4.33462	41.0657	-10.6962	-0	-6.0471	-0	-173.697	-16.0743	-175.273	-46.1378	72.2531	49.8385	-4.62997	27.7164	3.27174	0.291655	-5.22659	-2.24865	-141.606	-24.7267	-166.625	-10.4107	22.9334	13.0917	-39.2191	42.6594	42.8023	-2.39024	-0.645758	5.07582	69.4224	16.3507	-12.2837	65.911	52.9223	-70.2822	-98.3982	42.3731	11.9314	-13.0054	22.7408	-27.0316	118.64	14.8755	146.956	-35.0022	-19.1511	-5.55884	0.754176	14.8307	3.6246	8.6489	-1.81523	33.3438	164.069	-8.88149	-175.865	35.4816	41.4766	-38.9969	10.391	20.796	-13.9729	2.39024	-0.645758	-5.07582	179.078	-8.95961	174.23	88.154	74.271	-91.2219	12.18	50.7482	-10.1623	-0.291655	-5.22659	2.24865	-173.017	-31.3712	174.787	-1.29634	57.2681	-1.50851	-1.25535	7.78001	2.14606	-0	-6.0471	-0	-148.681	-62.8364	-168.995	-60.3558	70.2299	74.9065	-17.9122	51.4419	25.7218	0.569979	-8.19974	4.84949	-110.966	66.0933	-56.8773	62.8103	-79.4876	53.3631	-41.0009	50.5666	29.2821	-2.9036	56.5848	3.58142	-0.214127	1.01299	0.205132	146.321	28.4834	43.3095	-130.237	-84.79	-118.489	114.404	65.2316	-90.7209	2.91931	56.6159	-3.70922	0.214127	1.01299	-0.205132
